<mxfile host="seqgen" agent="seqgen" version="26.2.2">
  <diagram name="Diagram" id="test-1">
    <mxGraphModel dx="0" dy="0" grid="1" gridSize="10" guides="1" tooltips="1" connect="1" arrows="1" fold="1" page="0" pageScale="1" pageWidth="851" pageHeight="1100" background="#ffffff" math="0" shadow="0">
      <root>
        <mxCell id="0" />
        <mxCell id="1" parent="0" />
        <mxCell id="test-2" value="A" parent="1" style="shape=umlLifeline;perimeter=lifelinePerimeter;whiteSpace=wrap;html=1;container=1;dropTarget=0;collapsible=0;recursiveResize=0;outlineConnect=0;portConstraint=eastwest;newEdgeStyle={&quot;curved&quot;:0,&quot;rounded&quot;:0};size=40;" vertex="1">
          <mxGeometry x="0" y="0" width="160" height="665" as="geometry" />
        </mxCell>
        <mxCell id="test-3" value="B" parent="1" style="shape=umlLifeline;perimeter=lifelinePerimeter;whiteSpace=wrap;html=1;container=1;dropTarget=0;collapsible=0;recursiveResize=0;outlineConnect=0;portConstraint=eastwest;newEdgeStyle={&quot;curved&quot;:0,&quot;rounded&quot;:0};size=40;" vertex="1">
          <mxGeometry x="200" y="0" width="160" height="665" as="geometry" />
        </mxCell>
        <mxCell id="test-4" value="C" parent="1" style="shape=umlLifeline;perimeter=lifelinePerimeter;whiteSpace=wrap;html=1;container=1;dropTarget=0;collapsible=0;recursiveResize=0;outlineConnect=0;portConstraint=eastwest;newEdgeStyle={&quot;curved&quot;:0,&quot;rounded&quot;:0};size=40;" vertex="1">
          <mxGeometry x="400" y="0" width="160" height="665" as="geometry" />
        </mxCell>
        <mxCell id="test-5" value="" parent="test-3" style="html=1;points=[[0,0,0,0,5],[0,1,0,0,-5],[1,0,0,0,5],[1,1,0,0,-5]];perimeter=orthogonalPerimeter;outlineConnect=0;targetShapes=umlLifeline;portConstraint=eastwest;newEdgeStyle={&quot;curved&quot;:0,&quot;rounded&quot;:0};" vertex="1">
          <mxGeometry x="75.0" y="60" width="10" height="45" as="geometry" />
        </mxCell>
        <mxCell id="test-6" value="" parent="1" style="html=1;curved=0;rounded=0;startArrow=oval;startFill=1;align=center;verticalAlign=bottom;endArrow=block;dashed=0;entryX=0;entryY=0;entryDx=0;entryDy=5;" edge="1" target="test-5">
          <mxGeometry relative="1" as="geometry">
            <mxPoint as="sourcePoint" x="160.0" y="65" />
            <mxPoint as="targetPoint" />
          </mxGeometry>
        </mxCell>
        <mxCell id="test-7" value="" parent="test-3" style="html=1;points=[[0,0,0,0,5],[0,1,0,0,-5],[1,0,0,0,5],[1,1,0,0,-5]];perimeter=orthogonalPerimeter;outlineConnect=0;targetShapes=umlLifeline;portConstraint=eastwest;newEdgeStyle={&quot;curved&quot;:0,&quot;rounded&quot;:0};" vertex="1">
          <mxGeometry x="75.0" y="115" width="10" height="45" as="geometry" />
        </mxCell>
        <mxCell id="test-8" value="" parent="1" style="html=1;curved=0;rounded=0;startArrow=oval;startFill=1;align=center;verticalAlign=bottom;endArrow=block;dashed=0;entryX=1;entryY=0;entryDx=0;entryDy=5;" edge="1" target="test-7">
          <mxGeometry relative="1" as="geometry">
            <mxPoint as="sourcePoint" x="400.0" y="120" />
            <mxPoint as="targetPoint" />
          </mxGeometry>
        </mxCell>
        <mxCell id="test-9" value="opt" parent="1" style="shape=umlFrame;whiteSpace=wrap;html=1;pointerEvents=0;width=60;height=20;" vertex="1">
          <mxGeometry x="130.0" y="170" width="300.0" height="175" as="geometry" />
        </mxCell>
        <mxCell id="test-10" value="[frame]" parent="test-9" style="text;html=1;rounded=0;labelBackgroundColor=default;align=left;verticalAlign=middle;" vertex="1">
          <mxGeometry x="10" y="25" width="100" height="20" as="geometry" />
        </mxCell>
        <mxCell id="test-11" value="" parent="test-3" style="html=1;points=[[0,0,0,0,5],[0,1,0,0,-5],[1,0,0,0,5],[1,1,0,0,-5]];perimeter=orthogonalPerimeter;outlineConnect=0;targetShapes=umlLifeline;portConstraint=eastwest;newEdgeStyle={&quot;curved&quot;:0,&quot;rounded&quot;:0};" vertex="1">
          <mxGeometry x="75.0" y="235" width="10" height="45" as="geometry" />
        </mxCell>
        <mxCell id="test-12" value="message" parent="1" style="html=1;curved=0;rounded=0;startArrow=oval;startFill=1;align=center;verticalAlign=bottom;endArrow=block;dashed=0;entryX=0;entryY=0;entryDx=0;entryDy=5;" edge="1" target="test-11">
          <mxGeometry relative="1" as="geometry">
            <mxPoint as="sourcePoint" x="160.0" y="240" />
            <mxPoint as="targetPoint" />
          </mxGeometry>
        </mxCell>
        <mxCell id="test-13" value="" parent="test-3" style="html=1;points=[[0,0,0,0,5],[0,1,0,0,-5],[1,0,0,0,5],[1,1,0,0,-5]];perimeter=orthogonalPerimeter;outlineConnect=0;targetShapes=umlLifeline;portConstraint=eastwest;newEdgeStyle={&quot;curved&quot;:0,&quot;rounded&quot;:0};" vertex="1">
          <mxGeometry x="75.0" y="290" width="10" height="45" as="geometry" />
        </mxCell>
        <mxCell id="test-14" value="message" parent="1" style="html=1;curved=0;rounded=0;startArrow=oval;startFill=1;align=center;verticalAlign=bottom;endArrow=block;dashed=0;entryX=1;entryY=0;entryDx=0;entryDy=5;" edge="1" target="test-13">
          <mxGeometry relative="1" as="geometry">
            <mxPoint as="sourcePoint" x="400.0" y="295" />
            <mxPoint as="targetPoint" />
          </mxGeometry>
        </mxCell>
        <mxCell id="test-15" value="" parent="test-3" style="html=1;points=[[0,0,0,0,5],[0,1,0,0,-5],[1,0,0,0,5],[1,1,0,0,-5]];perimeter=orthogonalPerimeter;outlineConnect=0;targetShapes=umlLifeline;portConstraint=eastwest;newEdgeStyle={&quot;curved&quot;:0,&quot;rounded&quot;:0};" vertex="1">
          <mxGeometry x="75.0" y="365" width="10" height="55" as="geometry" />
        </mxCell>
        <mxCell id="test-16" value="message" parent="1" style="html=1;curved=0;rounded=0;startArrow=oval;startFill=1;align=center;verticalAlign=bottom;endArrow=block;dashed=0;entryX=0;entryY=0;entryDx=0;entryDy=5;" edge="1" target="test-15">
          <mxGeometry relative="1" as="geometry">
            <mxPoint as="sourcePoint" x="160.0" y="370" />
            <mxPoint as="targetPoint" />
          </mxGeometry>
        </mxCell>
        <mxCell id="test-17" value="" parent="test-3" style="html=1;points=[[0,0,0,0,5],[0,1,0,0,-5],[1,0,0,0,5],[1,1,0,0,-5]];perimeter=orthogonalPerimeter;outlineConnect=0;targetShapes=umlLifeline;portConstraint=eastwest;newEdgeStyle={&quot;curved&quot;:0,&quot;rounded&quot;:0};" vertex="1">
          <mxGeometry x="80.0" y="385" width="10" height="25" as="geometry" />
        </mxCell>
        <mxCell id="test-18" value="message" parent="1" style="html=1;curved=0;rounded=0;startArrow=oval;startFill=1;align=center;verticalAlign=bottom;endArrow=block;dashed=0;entryX=1;entryY=0;entryDx=0;entryDy=5;" edge="1" target="test-17">
          <mxGeometry relative="1" as="geometry">
            <mxPoint as="sourcePoint" x="400.0" y="390" />
            <mxPoint as="targetPoint" />
          </mxGeometry>
        </mxCell>
        <mxCell id="test-19" value="message" parent="1" style="html=1;curved=0;rounded=0;align=center;verticalAlign=bottom;endArrow=block;dashed=0;" edge="1" source="test-2" target="test-17">
          <mxGeometry relative="1" as="geometry">
            <mxPoint as="targetPoint" />
            <mxPoint as="sourcePoint" />
            <Array as="points">
              <mxPoint x="180.0" y="400" />
            </Array>
          </mxGeometry>
        </mxCell>
        <mxCell id="test-20" value="" parent="test-3" style="html=1;points=[[0,0,0,0,5],[0,1,0,0,-5],[1,0,0,0,5],[1,1,0,0,-5]];perimeter=orthogonalPerimeter;outlineConnect=0;targetShapes=umlLifeline;portConstraint=eastwest;newEdgeStyle={&quot;curved&quot;:0,&quot;rounded&quot;:0};" vertex="1">
          <mxGeometry x="75.0" y="430" width="10" height="65" as="geometry" />
        </mxCell>
        <mxCell id="test-21" value="message" parent="1" style="html=1;curved=0;rounded=0;startArrow=oval;startFill=1;align=center;verticalAlign=bottom;endArrow=block;dashed=0;entryX=0;entryY=0;entryDx=0;entryDy=5;" edge="1" target="test-20">
          <mxGeometry relative="1" as="geometry">
            <mxPoint as="sourcePoint" x="160.0" y="435" />
            <mxPoint as="targetPoint" />
          </mxGeometry>
        </mxCell>
        <mxCell id="test-22" value="" parent="test-3" style="html=1;points=[[0,0,0,0,5],[0,1,0,0,-5],[1,0,0,0,5],[1,1,0,0,-5]];perimeter=orthogonalPerimeter;outlineConnect=0;targetShapes=umlLifeline;portConstraint=eastwest;newEdgeStyle={&quot;curved&quot;:0,&quot;rounded&quot;:0};" vertex="1">
          <mxGeometry x="80.0" y="450" width="10" height="35" as="geometry" />
        </mxCell>
        <mxCell id="test-23" value="message" parent="1" style="html=1;curved=0;rounded=0;startArrow=oval;startFill=1;align=center;verticalAlign=bottom;endArrow=block;dashed=0;entryX=1;entryY=0;entryDx=0;entryDy=5;" edge="1" target="test-22">
          <mxGeometry relative="1" as="geometry">
            <mxPoint as="sourcePoint" x="400.0" y="455" />
            <mxPoint as="targetPoint" />
          </mxGeometry>
        </mxCell>
        <mxCell id="test-24" value="message" parent="1" style="html=1;curved=0;rounded=0;align=center;verticalAlign=bottom;endArrow=block;dashed=0;" edge="1" source="test-4" target="test-22">
          <mxGeometry relative="1" as="geometry">
            <mxPoint as="targetPoint" />
            <mxPoint as="sourcePoint" />
            <Array as="points">
              <mxPoint x="380.0" y="475" />
            </Array>
          </mxGeometry>
        </mxCell>
        <mxCell id="test-25" value="" parent="test-3" style="html=1;points=[[0,0,0,0,5],[0,1,0,0,-5],[1,0,0,0,5],[1,1,0,0,-5]];perimeter=orthogonalPerimeter;outlineConnect=0;targetShapes=umlLifeline;portConstraint=eastwest;newEdgeStyle={&quot;curved&quot;:0,&quot;rounded&quot;:0};" vertex="1">
          <mxGeometry x="75.0" y="505" width="10" height="65" as="geometry" />
        </mxCell>
        <mxCell id="test-26" value="message" parent="1" style="html=1;curved=0;rounded=0;startArrow=oval;startFill=1;align=center;verticalAlign=bottom;endArrow=block;dashed=0;entryX=0;entryY=0;entryDx=0;entryDy=5;" edge="1" target="test-25">
          <mxGeometry relative="1" as="geometry">
            <mxPoint as="sourcePoint" x="160.0" y="510" />
            <mxPoint as="targetPoint" />
          </mxGeometry>
        </mxCell>
        <mxCell id="test-27" value="" parent="test-3" style="html=1;points=[[0,0,0,0,5],[0,1,0,0,-5],[1,0,0,0,5],[1,1,0,0,-5]];perimeter=orthogonalPerimeter;outlineConnect=0;targetShapes=umlLifeline;portConstraint=eastwest;newEdgeStyle={&quot;curved&quot;:0,&quot;rounded&quot;:0};" vertex="1">
          <mxGeometry x="70.0" y="525" width="10" height="35" as="geometry" />
        </mxCell>
        <mxCell id="test-28" value="message" parent="1" style="html=1;curved=0;rounded=0;startArrow=oval;startFill=1;align=center;verticalAlign=bottom;endArrow=block;dashed=0;entryX=0;entryY=0;entryDx=0;entryDy=5;" edge="1" target="test-27">
          <mxGeometry relative="1" as="geometry">
            <mxPoint as="sourcePoint" x="160.0" y="530" />
            <mxPoint as="targetPoint" />
          </mxGeometry>
        </mxCell>
        <mxCell id="test-29" value="message" parent="1" style="html=1;curved=0;rounded=0;align=center;verticalAlign=bottom;endArrow=block;dashed=0;" edge="1" source="test-2" target="test-27">
          <mxGeometry relative="1" as="geometry">
            <mxPoint as="targetPoint" />
            <mxPoint as="sourcePoint" />
            <Array as="points">
              <mxPoint x="180.0" y="550" />
            </Array>
          </mxGeometry>
        </mxCell>
        <mxCell id="test-30" value="" parent="test-3" style="html=1;points=[[0,0,0,0,5],[0,1,0,0,-5],[1,0,0,0,5],[1,1,0,0,-5]];perimeter=orthogonalPerimeter;outlineConnect=0;targetShapes=umlLifeline;portConstraint=eastwest;newEdgeStyle={&quot;curved&quot;:0,&quot;rounded&quot;:0};" vertex="1">
          <mxGeometry x="75.0" y="580" width="10" height="55" as="geometry" />
        </mxCell>
        <mxCell id="test-31" value="message" parent="1" style="html=1;curved=0;rounded=0;startArrow=oval;startFill=1;align=center;verticalAlign=bottom;endArrow=block;dashed=0;entryX=0;entryY=0;entryDx=0;entryDy=5;" edge="1" target="test-30">
          <mxGeometry relative="1" as="geometry">
            <mxPoint as="sourcePoint" x="160.0" y="585" />
            <mxPoint as="targetPoint" />
          </mxGeometry>
        </mxCell>
        <mxCell id="test-32" value="" parent="test-3" style="html=1;points=[[0,0,0,0,5],[0,1,0,0,-5],[1,0,0,0,5],[1,1,0,0,-5]];perimeter=orthogonalPerimeter;outlineConnect=0;targetShapes=umlLifeline;portConstraint=eastwest;newEdgeStyle={&quot;curved&quot;:0,&quot;rounded&quot;:0};" vertex="1">
          <mxGeometry x="70.0" y="600" width="10" height="25" as="geometry" />
        </mxCell>
        <mxCell id="test-33" value="message" parent="1" style="html=1;curved=0;rounded=0;startArrow=oval;startFill=1;align=center;verticalAlign=bottom;endArrow=block;dashed=0;entryX=0;entryY=0;entryDx=0;entryDy=5;" edge="1" target="test-32">
          <mxGeometry relative="1" as="geometry">
            <mxPoint as="sourcePoint" x="160.0" y="605" />
            <mxPoint as="targetPoint" />
          </mxGeometry>
        </mxCell>
        <mxCell id="test-34" value="message" parent="1" style="html=1;curved=0;rounded=0;align=center;verticalAlign=bottom;endArrow=block;dashed=0;" edge="1" source="test-4" target="test-32">
          <mxGeometry relative="1" as="geometry">
            <mxPoint as="targetPoint" />
            <mxPoint as="sourcePoint" />
            <Array as="points">
              <mxPoint x="380.0" y="615" />
            </Array>
          </mxGeometry>
        </mxCell>
      </root>
    </mxGraphModel>
  </diagram>
</mxfile>
